# Blender v2.78 (sub 0) OBJ File: ''
# www.blender.org
mtllib Water_1_001.mtl
o Plane
v -12.911608 0.067441 12.911608
v 12.911608 0.072998 12.911608
v -12.911608 0.024991 -12.911608
v 12.911608 0.014068 -12.911608
v -12.911608 0.050604 0.000000
v 0.000000 -0.015184 12.911608
v 12.911608 0.133734 0.000000
v 0.000000 0.138752 -12.911608
v 0.000000 0.083726 0.000000
v -12.911608 0.053424 6.455804
v 6.455804 0.070980 12.911608
v 12.911608 0.031679 -6.455804
v -6.455804 0.061510 -12.911608
v -12.911608 -0.028245 -6.455804
v -6.455804 0.070817 12.911608
v 12.911608 0.102027 6.455804
v 6.455804 -0.016536 -12.911608
v 0.000000 -0.044449 -6.455804
v 0.000000 0.073803 6.455804
v -6.455804 0.057122 0.000000
v 6.455804 0.227957 0.000000
v 6.455804 0.004835 6.455804
v -6.455804 0.114240 6.455804
v -6.455804 0.016312 -6.455804
v 6.455804 0.249975 -6.455804
v -12.911608 -0.034816 9.683706
v 9.683706 0.079312 12.911608
v 12.911608 0.136913 -9.683706
v -9.683706 -0.083041 -12.911608
v -12.911608 0.187480 -3.227902
v -3.227902 -0.101719 12.911608
v 12.911608 -0.034170 3.227902
v 3.227902 -0.074826 -12.911608
v 0.000000 0.044699 -9.683706
v 0.000000 0.093496 3.227902
v -9.683706 0.013353 0.000000
v 3.227902 0.098507 0.000000
v -12.911608 0.025853 3.227902
v 3.227902 -0.009255 12.911608
v 12.911608 -0.042097 -3.227902
v -3.227902 0.099430 -12.911608
v -12.911608 -0.048441 -9.683706
v -9.683706 -0.043283 12.911608
v 12.911608 0.134706 9.683706
v 9.683706 0.080791 -12.911608
v 0.000000 0.047252 -3.227902
v 0.000000 0.130569 9.683706
v -3.227902 0.155220 0.000000
v 9.683706 -0.018414 0.000000
v 6.455804 0.099032 3.227902
v 6.455804 -0.078070 9.683706
v 3.227902 0.136810 6.455804
v 9.683706 0.135560 6.455804
v -6.455804 0.000725 3.227902
v -6.455804 -0.044787 9.683706
v -9.683706 0.051378 6.455804
v -3.227902 -0.001799 6.455804
v -6.455804 0.050535 -9.683706
v -6.455804 0.068536 -3.227902
v -9.683706 0.144882 -6.455804
v -3.227902 0.103940 -6.455804
v 6.455804 0.177184 -9.683706
v 6.455804 0.130249 -3.227902
v 3.227902 -0.143862 -6.455804
v 9.683706 0.137369 -6.455804
v 9.683706 0.145356 -3.227902
v 3.227902 0.249111 -3.227902
v 3.227902 -0.025733 -9.683706
v -3.227902 0.133632 -3.227902
v -9.683706 0.164583 -3.227902
v -9.683706 0.234059 -9.683706
v -3.227902 0.118703 9.683706
v -9.683706 0.173069 9.683706
v -9.683706 0.196869 3.227902
v 9.683706 0.153833 9.683706
v 3.227902 -0.157878 9.683706
v 3.227902 0.163903 3.227902
v 9.683706 0.161256 3.227902
v -3.227902 0.098990 3.227902
v -3.227902 0.270546 -9.683706
v 9.683706 0.078117 -9.683706
v -12.911608 -0.086372 11.297657
v 11.297657 0.070619 12.911608
v 12.911608 -0.036970 -11.297657
v -11.297657 -0.016517 -12.911608
v -12.911608 0.094736 -1.613951
v -1.613951 -0.019475 12.911608
v 12.911608 -0.015715 1.613951
v 1.613951 0.088319 -12.911608
v 0.000000 0.072199 -11.297657
v 0.000000 0.113282 1.613951
v -11.297657 0.075153 0.000000
v 1.613951 0.093856 0.000000
v -12.911608 -0.000125 4.841853
v 4.841853 0.047677 12.911608
v 12.911608 0.101354 -4.841853
v -4.841853 0.046444 -12.911608
v -12.911608 0.062961 -8.069755
v -8.069755 -0.016128 12.911608
v 12.911608 0.182192 8.069755
v 8.069755 0.031896 -12.911608
v 0.000000 0.116392 -4.841853
v 0.000000 -0.067442 8.069755
v -4.841853 0.213144 0.000000
v 8.069755 0.109501 0.000000
v 6.455804 0.156914 1.613951
v 6.455804 0.158860 8.069755
v 1.613951 0.167263 6.455804
v 8.069755 -0.002883 6.455804
v -6.455804 0.037412 1.613951
v -6.455804 -0.074904 8.069755
v -11.297657 0.208040 6.455804
v -4.841853 0.165220 6.455804
v -6.455804 0.003092 -11.297657
v -6.455804 0.167940 -4.841853
v -11.297657 0.031171 -6.455804
v -4.841853 0.025764 -6.455804
v 6.455804 0.019565 -11.297657
v 6.455804 0.100066 -4.841853
v 1.613951 0.125298 -6.455804
v 8.069755 -0.074059 -6.455804
v -12.911608 0.021337 8.069755
v 8.069755 0.166334 12.911608
v 12.911608 0.088128 -8.069755
v -8.069755 -0.116554 -12.911608
v -12.911608 0.091273 -4.841853
v -4.841853 0.009613 12.911608
v 12.911608 0.010776 4.841853
v 4.841853 0.049630 -12.911608
v 0.000000 0.087651 -8.069755
v 0.000000 0.046366 4.841853
v -8.069755 0.007078 0.000000
v 4.841853 0.138481 0.000000
v -12.911608 -0.068481 1.613951
v 1.613951 0.000363 12.911608
v 12.911608 -0.002369 -1.613951
v -1.613951 0.134169 -12.911608
v -12.911608 -0.019558 -11.297657
v -11.297657 0.037955 12.911608
v 12.911608 -0.015022 11.297657
v 11.297657 -0.028354 -12.911608
v 0.000000 0.006230 -1.613951
v 0.000000 -0.028622 11.297657
v -1.613951 -0.039774 0.000000
v 11.297657 0.042338 0.000000
v 6.455804 -0.117169 4.841853
v 6.455804 0.368990 11.297657
v 4.841853 -0.000629 6.455804
v 11.297657 0.238104 6.455804
v -6.455804 -0.006357 4.841853
v -6.455804 0.054946 11.297657
v -8.069755 0.109069 6.455804
v -1.613951 0.112677 6.455804
v -6.455804 0.246315 -8.069755
v -6.455804 0.093655 -1.613951
v -8.069755 0.003555 -6.455804
v -1.613951 0.065725 -6.455804
v 6.455804 0.030320 -8.069755
v 6.455804 0.003699 -1.613951
v 4.841853 0.104427 -6.455804
v 11.297657 0.073773 -6.455804
v 9.683706 -0.144069 -4.841853
v 9.683706 0.085519 -1.613951
v 8.069755 0.275826 -3.227902
v 11.297657 0.221477 -3.227902
v 3.227902 0.199855 -4.841853
v 3.227902 0.006926 -1.613951
v 1.613951 0.035190 -3.227902
v 4.841853 0.080505 -3.227902
v 3.227902 -0.016756 -11.297657
v 3.227902 0.012165 -8.069755
v 1.613951 0.095695 -9.683706
v 4.841853 -0.109037 -9.683706
v -3.227902 0.158143 -4.841853
v -3.227902 -0.086336 -1.613951
v -4.841853 0.140547 -3.227902
v -1.613951 0.261466 -3.227902
v -9.683706 0.154074 -4.841853
v -9.683706 0.280722 -1.613951
v -11.297657 0.253510 -3.227902
v -8.069755 0.149267 -3.227902
v -9.683706 0.033497 -11.297657
v -9.683706 -0.053024 -8.069755
v -11.297657 0.167037 -9.683706
v -8.069755 0.139539 -9.683706
v -3.227902 0.133741 8.069755
v -3.227902 -0.090940 11.297657
v -4.841853 0.081392 9.683706
v -1.613951 0.305460 9.683706
v -9.683706 0.146377 8.069755
v -9.683706 0.180827 11.297657
v -11.297657 0.040205 9.683706
v -8.069755 0.093482 9.683706
v -9.683706 -0.163259 1.613951
v -9.683706 0.114763 4.841853
v -11.297657 0.096973 3.227902
v -8.069755 0.300819 3.227902
v 9.683706 -0.148202 8.069755
v 9.683706 0.059099 11.297657
v 8.069755 0.025368 9.683706
v 11.297657 0.001126 9.683706
v 3.227902 -0.007517 8.069755
v 3.227902 0.053925 11.297657
v 1.613951 -0.054239 9.683706
v 4.841853 0.045469 9.683706
v 3.227902 -0.068870 1.613951
v 3.227902 0.224970 4.841853
v 1.613951 0.218105 3.227902
v 4.841853 0.178999 3.227902
v 9.683706 0.004122 1.613951
v 9.683706 0.241644 4.841853
v 8.069755 0.077899 3.227902
v 11.297657 0.050681 3.227902
v -3.227902 0.075666 1.613951
v -3.227902 0.196867 4.841853
v -4.841853 -0.106484 3.227902
v -1.613951 -0.047636 3.227902
v -3.227902 0.094491 -11.297657
v -3.227902 -0.059033 -8.069755
v -4.841853 0.087895 -9.683706
v -1.613951 0.075727 -9.683706
v 9.683706 0.171862 -11.297657
v 9.683706 0.185263 -8.069755
v 8.069755 0.096613 -9.683706
v 11.297657 0.261950 -9.683706
v 11.297657 0.261373 -8.069755
v 8.069755 0.177128 -8.069755
v 8.069755 0.037210 -11.297657
v -1.613951 0.084454 -8.069755
v -4.841853 0.091771 -8.069755
v -4.841853 0.053263 -11.297657
v -1.613951 0.135141 4.841853
v -4.841853 0.045987 4.841853
v -4.841853 0.311769 1.613951
v 11.297657 0.278239 4.841853
v 8.069755 0.104401 4.841853
v 8.069755 -0.008122 1.613951
v 4.841853 0.008768 4.841853
v 1.613951 -0.025699 4.841853
v 1.613951 -0.052649 1.613951
v 4.841853 0.005653 11.297657
v 1.613951 0.053339 11.297657
v 1.613951 0.013445 8.069755
v 11.297657 0.097787 11.297657
v 8.069755 0.077511 11.297657
v 8.069755 0.103349 8.069755
v -8.069755 -0.017188 4.841853
v -11.297657 0.101372 4.841853
v -11.297657 0.010944 1.613951
v -8.069755 0.150356 11.297657
v -11.297657 -0.080315 11.297657
v -11.297657 0.062690 8.069755
v -1.613951 0.054309 11.297657
v -4.841853 0.119513 11.297657
v -4.841853 -0.014891 8.069755
v -8.069755 0.026805 -8.069755
v -11.297657 0.108920 -8.069755
v -11.297657 0.058098 -11.297657
v -8.069755 0.102551 -1.613951
v -11.297657 0.142470 -1.613951
v -11.297657 0.055508 -4.841853
v -1.613951 -0.007437 -1.613951
v -4.841853 0.096135 -1.613951
v -4.841853 0.070978 -4.841853
v 4.841853 -0.047253 -8.069755
v 1.613951 0.019146 -8.069755
v 1.613951 0.050207 -11.297657
v 4.841853 0.158095 -1.613951
v 1.613951 0.073305 -1.613951
v 1.613951 0.034598 -4.841853
v 11.297657 0.034277 -1.613951
v 8.069755 0.026477 -1.613951
v 8.069755 -0.110986 -4.841853
v 11.297657 -0.056198 -4.841853
v 4.841853 0.139163 -4.841853
v 4.841853 0.005035 -11.297657
v -1.613951 0.208565 -4.841853
v -8.069755 0.039194 -4.841853
v -8.069755 0.076284 -11.297657
v -1.613951 0.071106 8.069755
v -8.069755 0.195641 8.069755
v -8.069755 0.018122 1.613951
v 11.297657 0.064705 8.069755
v 4.841853 -0.108663 8.069755
v 4.841853 -0.151485 1.613951
v 11.297657 0.114175 1.613951
v -1.613951 -0.018168 1.613951
v -1.613951 0.065577 -11.297657
v 11.297657 -0.005860 -11.297657
vn -0.0035 1.0000 0.0088
vn -0.0035 0.9991 0.0418
vn -0.0787 0.9968 -0.0158
vn 0.0119 0.9996 0.0240
vn -0.1216 0.9864 0.1103
vn -0.0843 0.9963 -0.0142
vn 0.0058 0.9996 0.0289
vn -0.0215 0.9998 0.0027
vn 0.0819 0.9961 0.0317
vn 0.0548 0.9969 0.0565
vn -0.0324 0.9986 -0.0416
vn -0.0437 0.9974 -0.0579
vn 0.0623 0.9937 -0.0935
vn 0.0160 0.9999 0.0026
vn -0.0329 0.9988 0.0356
vn -0.0357 0.9992 0.0187
vn -0.0549 0.9937 0.0980
vn 0.0220 0.9952 0.0953
vn 0.0925 0.9947 0.0454
vn 0.0321 0.9964 -0.0781
vn -0.0456 0.9970 0.0630
vn 0.0324 0.9994 0.0152
vn 0.0711 0.9974 -0.0062
vn 0.0397 0.9991 0.0120
vn -0.1120 0.9934 0.0262
vn -0.0511 0.9982 -0.0307
vn 0.0584 0.9950 0.0815
vn 0.0617 0.9935 0.0954
vn -0.0656 0.9978 -0.0104
vn -0.0153 0.9999 -0.0016
vn 0.0278 0.9996 0.0067
vn 0.0282 0.9979 -0.0591
vn 0.0292 0.9939 0.1063
vn -0.0404 0.9989 -0.0257
vn 0.0057 0.9999 0.0138
vn 0.0535 0.9972 0.0530
vn 0.0790 0.9889 0.1257
vn 0.0226 0.9996 0.0156
vn -0.1211 0.9920 0.0347
vn 0.0721 0.9962 -0.0483
vn 0.0727 0.9946 0.0742
vn -0.0351 0.9991 0.0241
vn 0.0888 0.9910 0.0998
vn 0.0350 0.9979 0.0549
vn -0.0341 0.9993 0.0132
vn -0.0064 0.9998 0.0164
vn 0.0159 0.9956 0.0920
vn 0.0318 0.9946 -0.0984
vn -0.0735 0.9895 -0.1248
vn 0.0036 0.9953 0.0968
vn -0.0607 0.9966 0.0564
vn 0.0632 0.9909 0.1186
vn 0.0358 0.9989 0.0294
vn -0.0681 0.9971 -0.0330
vn 0.1081 0.9906 -0.0836
vn 0.0907 0.9959 -0.0059
vn -0.1094 0.9910 -0.0769
vn -0.0162 0.9990 -0.0420
vn -0.0292 0.9996 -0.0006
vn -0.0098 0.9949 0.1004
vn 0.0086 0.9998 -0.0160
vn -0.0567 0.9979 -0.0298
vn 0.0032 0.9983 -0.0580
vn 0.0920 0.9956 0.0152
vn -0.0802 0.9962 -0.0329
vn -0.0039 0.9973 0.0728
vn 0.0664 0.9950 0.0752
vn -0.0205 0.9996 0.0205
vn 0.0548 0.9984 0.0098
vn -0.0676 0.9935 0.0920
vn -0.0205 0.9997 -0.0128
vn 0.0194 0.9976 -0.0671
vn -0.0360 0.9993 0.0106
vn 0.0158 0.9950 0.0989
vn -0.0326 0.9985 -0.0446
vn 0.0331 0.9984 0.0467
vn 0.0362 0.9974 -0.0617
vn 0.0447 0.9948 0.0912
vn 0.0225 0.9993 -0.0300
vn -0.0109 0.9998 0.0160
vn -0.0271 0.9993 -0.0254
vn -0.0690 0.9955 -0.0650
vn 0.0642 0.9942 -0.0864
vn -0.0163 0.9975 0.0683
vn 0.0395 0.9992 -0.0015
vn 0.0170 0.9988 -0.0450
vn -0.0319 0.9967 -0.0741
vn 0.0050 0.9997 0.0246
vn -0.1321 0.9909 -0.0242
vn -0.0512 0.9889 0.1394
vn 0.0094 0.9926 0.1214
vn 0.0228 0.9952 -0.0949
vn -0.0430 0.9981 0.0452
vn 0.1240 0.9922 -0.0157
vn -0.0619 0.9964 0.0586
vn -0.0661 0.9978 -0.0046
vn -0.0849 0.9942 0.0657
vn 0.0873 0.9945 0.0581
vn 0.0576 0.9983 -0.0087
vn -0.0295 0.9967 -0.0751
vn 0.0621 0.9975 0.0337
vn 0.1089 0.9936 0.0300
vn 0.0373 0.9987 -0.0348
vn -0.0162 0.9958 0.0898
vn -0.0066 0.9977 -0.0681
vn -0.0680 0.9972 -0.0324
vn 0.0482 0.9982 0.0362
vn 0.0128 0.9969 -0.0775
vn 0.0216 0.9878 -0.1541
vn -0.0479 0.9974 -0.0531
vn -0.0027 1.0000 0.0066
vn -0.1186 0.9898 0.0785
vn 0.0318 0.9994 0.0160
vn -0.0302 0.9995 0.0122
vn 0.0028 0.9993 0.0360
vn -0.0537 0.9944 0.0909
vn 0.0322 0.9987 -0.0403
vn 0.0385 0.9970 0.0673
vn 0.0353 0.9994 -0.0006
vn -0.0093 1.0000 0.0022
vn 0.0342 0.9992 -0.0188
vn 0.0575 0.9866 -0.1526
vn 0.0605 0.9961 0.0646
vn 0.0326 0.9989 -0.0337
vn 0.0195 0.9966 -0.0804
vn -0.0148 0.9952 0.0971
vn 0.0380 0.9969 -0.0692
vn 0.0086 0.9924 0.1230
vn 0.0230 0.9995 -0.0195
vn -0.0049 0.9971 -0.0763
vn -0.0534 0.9986 0.0067
vn -0.0790 0.9956 -0.0494
vn 0.0443 0.9989 -0.0134
vn -0.0321 0.9979 0.0567
vn -0.0465 0.9974 -0.0557
vn 0.0228 0.9903 -0.1369
vn 0.0341 0.9992 -0.0200
vn 0.0010 0.9928 0.1201
vn 0.0026 0.9989 0.0466
vn -0.0251 0.9983 0.0532
vn 0.0072 0.9964 -0.0840
vn -0.0556 0.9979 0.0327
vn -0.0605 0.9967 0.0548
vn -0.0360 0.9991 0.0243
vn -0.0669 0.9978 -0.0013
vn -0.1013 0.9849 0.1406
vn -0.0703 0.9972 0.0261
vn 0.0244 0.9995 0.0187
vn -0.0589 0.9974 -0.0426
vn -0.0010 0.9996 0.0291
vn 0.0991 0.9944 0.0372
vn -0.0341 0.9929 0.1136
vn -0.0575 0.9976 -0.0391
vn -0.0575 0.9980 -0.0251
vn 0.0045 0.9924 0.1229
vn 0.0190 0.9984 -0.0540
vn -0.0716 0.9944 0.0780
vn -0.0807 0.9966 -0.0165
vn -0.0326 0.9981 0.0522
vn 0.0149 0.9992 -0.0372
vn -0.0112 0.9999 -0.0093
vn -0.0904 0.9956 -0.0247
vn -0.0131 0.9953 -0.0954
vn 0.0598 0.9980 -0.0215
vn 0.0567 0.9921 0.1115
vn -0.0127 0.9991 0.0409
vn -0.0352 0.9974 0.0630
vn -0.0224 0.9992 0.0345
vn -0.0236 0.9944 0.1031
vn -0.0073 0.9990 -0.0445
vn -0.0093 0.9958 -0.0908
vn -0.0030 0.9979 -0.0645
vn -0.0632 0.9867 0.1494
vn 0.0359 0.9973 -0.0646
vn -0.0425 0.9990 -0.0140
vn -0.0231 0.9997 0.0060
vn -0.0490 0.9985 -0.0249
vn 0.0738 0.9912 -0.1101
vn 0.0271 0.9978 -0.0608
vn 0.0077 0.9999 0.0092
vn -0.0249 0.9996 -0.0140
vn 0.0442 0.9985 -0.0308
vn -0.0584 0.9983 0.0013
vn -0.0685 0.9911 -0.1140
vn 0.0054 0.9999 0.0104
vn -0.0313 0.9995 0.0080
vn 0.0852 0.9962 0.0154
vn 0.0224 0.9992 0.0324
vn -0.0090 0.9999 -0.0056
vn 0.0583 0.9982 -0.0113
vn 0.0054 0.9987 0.0509
vn -0.0591 0.9980 -0.0223
vn 0.0201 0.9978 -0.0633
vn -0.0170 0.9999 0.0009
vn -0.0239 0.9993 -0.0304
vn 0.0191 0.9992 -0.0347
vn -0.0272 0.9994 -0.0217
vn 0.0291 0.9994 0.0212
vn -0.1167 0.9931 -0.0153
vn -0.0077 0.9971 0.0763
vn -0.0029 0.9996 0.0297
vn -0.0169 0.9989 -0.0446
vn -0.0517 0.9920 0.1155
vn 0.0295 0.9951 -0.0947
vn 0.0213 0.9998 0.0065
vn 0.1633 0.9849 0.0570
vn 0.0201 0.9916 -0.1281
vn 0.0495 0.9776 -0.2048
vn -0.0075 0.9919 0.1264
vn -0.0500 0.9837 -0.1728
vn 0.0328 0.9986 -0.0415
vn -0.0576 0.9915 -0.1163
vn 0.0709 0.9975 0.0029
vn -0.0033 1.0000 0.0088
vn -0.0453 0.9990 -0.0042
vn 0.0190 0.9991 0.0381
vn -0.0928 0.9956 -0.0134
vn -0.0038 0.9981 -0.0609
vn -0.0551 0.9984 -0.0088
vn 0.0945 0.9955 0.0050
vn 0.0791 0.9968 -0.0138
vn 0.0403 0.9985 -0.0373
vn -0.0149 0.9999 -0.0033
vn -0.0029 0.9954 -0.0954
vn 0.0160 0.9965 -0.0814
vn 0.0502 0.9982 -0.0342
vn -0.0161 0.9994 -0.0291
vn -0.0383 0.9970 -0.0677
vn 0.0958 0.9866 -0.1321
vn -0.0331 0.9979 -0.0561
vn 0.0094 0.9997 0.0234
vn 0.1256 0.9918 0.0221
vn -0.0541 0.9972 0.0512
vn -0.0864 0.9771 -0.1946
vn 0.0864 0.9934 -0.0757
vn -0.0963 0.9855 0.1396
vn -0.0186 0.9971 -0.0737
vn -0.0775 0.9964 0.0343
vn 0.0735 0.9943 0.0777
vn -0.0316 0.9995 -0.0012
vn -0.0445 0.9987 0.0256
vn 0.0131 0.9900 0.1403
vn 0.0206 0.9849 -0.1719
vn -0.0703 0.9940 -0.0839
vn -0.0528 0.9982 -0.0292
vn 0.0002 0.9996 -0.0290
vn 0.0664 0.9975 0.0253
vn 0.0891 0.9959 0.0179
vn 0.0743 0.9972 0.0019
vn -0.0841 0.9963 0.0152
vn -0.0018 0.9997 0.0228
vn 0.0690 0.9960 -0.0575
vn 0.0076 1.0000 0.0054
vn 0.0885 0.9955 -0.0350
vn -0.0019 0.9985 -0.0538
vn 0.0479 0.9896 -0.1354
usemtl None
s off
f 289//1 84//1 4//1 141//1
f 288//2 90//2 8//2 137//2
f 287//3 91//3 9//3 144//3
f 286//4 88//4 7//4 145//4
f 285//5 106//5 21//5 133//5
f 284//6 107//6 22//6 148//6
f 283//7 100//7 16//7 149//7
f 282//8 110//8 20//8 132//8
f 281//9 111//9 23//9 152//9
f 280//10 103//10 19//10 153//10
f 279//11 114//11 13//11 125//11
f 278//12 115//12 24//12 156//12
f 277//13 102//13 18//13 157//13
f 276//14 118//14 17//14 129//14
f 275//15 119//15 25//15 160//15
f 274//16 96//16 12//16 161//16
f 273//17 162//17 65//17 121//17
f 272//18 163//18 66//18 164//18
f 271//19 136//19 40//19 165//19
f 270//20 166//20 64//20 120//20
f 269//21 167//21 67//21 168//21
f 268//22 159//22 63//22 169//22
f 267//23 170//23 33//23 89//23
f 266//24 171//24 68//24 172//24
f 265//25 158//25 62//25 173//25
f 264//26 174//26 61//26 117//26
f 263//27 175//27 69//27 176//27
f 262//28 142//28 46//28 177//28
f 261//29 178//29 60//29 116//29
f 260//30 179//30 70//30 180//30
f 259//31 155//31 59//31 181//31
f 258//32 182//32 29//32 85//32
f 257//33 183//33 71//33 184//33
f 256//34 154//34 58//34 185//34
f 255//35 186//35 57//35 113//35
f 254//36 187//36 72//36 188//36
f 253//37 143//37 47//37 189//37
f 252//38 190//38 56//38 112//38
f 251//39 191//39 73//39 192//39
f 250//40 151//40 55//40 193//40
f 249//41 194//41 36//41 92//41
f 248//42 195//42 74//42 196//42
f 247//43 150//43 54//43 197//43
f 246//44 198//44 53//44 109//44
f 245//45 199//45 75//45 200//45
f 244//46 140//46 44//46 201//46
f 243//47 202//47 52//47 108//47
f 242//48 203//48 76//48 204//48
f 241//49 147//49 51//49 205//49
f 240//50 206//50 37//50 93//50
f 239//51 207//51 77//51 208//51
f 238//52 146//52 50//52 209//52
f 237//53 210//53 49//53 105//53
f 236//54 211//54 78//54 212//54
f 235//55 128//55 32//55 213//55
f 234//56 214//56 48//56 104//56
f 233//57 215//57 79//57 216//57
f 232//58 131//58 35//58 217//58
f 231//59 218//59 41//59 97//59
f 230//60 219//60 80//60 220//60
f 229//61 130//61 34//61 221//61
f 228//62 222//62 45//62 101//62
f 227//63 223//63 81//63 224//63
f 226//64 124//64 28//64 225//64
f 223//65 226//65 225//65 81//65
f 65//66 161//66 226//66 223//66
f 161//67 12//67 124//67 226//67
f 158//68 227//68 224//68 62//68
f 25//69 121//69 227//69 158//69
f 121//70 65//70 223//70 227//70
f 118//71 228//71 101//71 17//71
f 62//72 224//72 228//72 118//72
f 224//73 81//73 222//73 228//73
f 219//74 229//74 221//74 80//74
f 61//75 157//75 229//75 219//75
f 157//76 18//76 130//76 229//76
f 154//77 230//77 220//77 58//77
f 24//78 117//78 230//78 154//78
f 117//79 61//79 219//79 230//79
f 114//80 231//80 97//80 13//80
f 58//81 220//81 231//81 114//81
f 220//82 80//82 218//82 231//82
f 215//83 232//83 217//83 79//83
f 57//84 153//84 232//84 215//84
f 153//85 19//85 131//85 232//85
f 150//86 233//86 216//86 54//86
f 23//87 113//87 233//87 150//87
f 113//88 57//88 215//88 233//88
f 110//89 234//89 104//89 20//89
f 54//90 216//90 234//90 110//90
f 216//91 79//91 214//91 234//91
f 211//92 235//92 213//92 78//92
f 53//93 149//93 235//93 211//93
f 149//94 16//94 128//94 235//94
f 146//95 236//95 212//95 50//95
f 22//96 109//96 236//96 146//96
f 109//97 53//97 211//97 236//97
f 106//98 237//98 105//98 21//98
f 50//99 212//99 237//99 106//99
f 212//100 78//100 210//100 237//100
f 207//101 238//101 209//101 77//101
f 52//102 148//102 238//102 207//102
f 148//103 22//103 146//103 238//103
f 131//104 239//104 208//104 35//104
f 19//105 108//105 239//105 131//105
f 108//106 52//106 207//106 239//106
f 91//107 240//107 93//107 9//107
f 35//108 208//108 240//108 91//108
f 208//109 77//109 206//109 240//109
f 203//110 241//110 205//110 76//110
f 39//111 95//111 241//111 203//111
f 95//112 11//112 147//112 241//112
f 143//113 242//113 204//113 47//113
f 6//114 135//114 242//114 143//114
f 135//115 39//115 203//115 242//115
f 103//116 243//116 108//116 19//116
f 47//117 204//117 243//117 103//117
f 204//118 76//118 202//118 243//118
f 199//119 244//119 201//119 75//119
f 27//120 83//120 244//120 199//120
f 83//121 2//121 140//121 244//121
f 147//122 245//122 200//122 51//122
f 11//123 123//123 245//123 147//123
f 123//124 27//124 199//124 245//124
f 107//125 246//125 109//125 22//125
f 51//126 200//126 246//126 107//126
f 200//127 75//127 198//127 246//127
f 195//128 247//128 197//128 74//128
f 56//129 152//129 247//129 195//129
f 152//130 23//130 150//130 247//130
f 94//131 248//131 196//131 38//131
f 10//132 112//132 248//132 94//132
f 112//133 56//133 195//133 248//133
f 134//134 249//134 92//134 5//134
f 38//135 196//135 249//135 134//135
f 196//136 74//136 194//136 249//136
f 191//137 250//137 193//137 73//137
f 43//138 99//138 250//138 191//138
f 99//139 15//139 151//139 250//139
f 82//140 251//140 192//140 26//140
f 1//141 139//141 251//141 82//141
f 139//142 43//142 191//142 251//142
f 122//143 252//143 112//143 10//143
f 26//144 192//144 252//144 122//144
f 192//145 73//145 190//145 252//145
f 187//146 253//146 189//146 72//146
f 31//147 87//147 253//147 187//147
f 87//148 6//148 143//148 253//148
f 151//149 254//149 188//149 55//149
f 15//150 127//150 254//150 151//150
f 127//151 31//151 187//151 254//151
f 111//152 255//152 113//152 23//152
f 55//153 188//153 255//153 111//153
f 188//154 72//154 186//154 255//154
f 183//155 256//155 185//155 71//155
f 60//156 156//156 256//156 183//156
f 156//157 24//157 154//157 256//157
f 98//158 257//158 184//158 42//158
f 14//159 116//159 257//159 98//159
f 116//160 60//160 183//160 257//160
f 138//161 258//161 85//161 3//161
f 42//162 184//162 258//162 138//162
f 184//163 71//163 182//163 258//163
f 179//164 259//164 181//164 70//164
f 36//165 132//165 259//165 179//165
f 132//166 20//166 155//166 259//166
f 86//167 260//167 180//167 30//167
f 5//168 92//168 260//168 86//168
f 92//169 36//169 179//169 260//169
f 126//170 261//170 116//170 14//170
f 30//171 180//171 261//171 126//171
f 180//172 70//172 178//172 261//172
f 175//173 262//173 177//173 69//173
f 48//174 144//174 262//174 175//174
f 144//175 9//175 142//175 262//175
f 155//176 263//176 176//176 59//176
f 20//177 104//177 263//177 155//177
f 104//178 48//178 175//178 263//178
f 115//179 264//179 117//179 24//179
f 59//180 176//180 264//180 115//180
f 176//181 69//181 174//181 264//181
f 171//182 265//182 173//182 68//182
f 64//183 160//183 265//183 171//183
f 160//184 25//184 158//184 265//184
f 130//185 266//185 172//185 34//185
f 18//186 120//186 266//186 130//186
f 120//187 64//187 171//187 266//187
f 90//188 267//188 89//188 8//188
f 34//189 172//189 267//189 90//189
f 172//190 68//190 170//190 267//190
f 167//191 268//191 169//191 67//191
f 37//192 133//192 268//192 167//192
f 133//193 21//193 159//193 268//193
f 142//194 269//194 168//194 46//194
f 9//195 93//195 269//195 142//195
f 93//196 37//196 167//196 269//196
f 102//197 270//197 120//197 18//197
f 46//198 168//198 270//198 102//198
f 168//199 67//199 166//199 270//199
f 163//200 271//200 165//200 66//200
f 49//201 145//201 271//201 163//201
f 145//202 7//202 136//202 271//202
f 159//203 272//203 164//203 63//203
f 21//204 105//204 272//204 159//204
f 105//205 49//205 163//205 272//205
f 119//206 273//206 121//206 25//206
f 63//207 164//207 273//207 119//207
f 164//208 66//208 162//208 273//208
f 162//209 274//209 161//209 65//209
f 66//210 165//210 274//210 162//210
f 165//211 40//211 96//211 274//211
f 166//212 275//212 160//212 64//212
f 67//213 169//213 275//213 166//213
f 169//214 63//214 119//214 275//214
f 170//215 276//215 129//215 33//215
f 68//216 173//216 276//216 170//216
f 173//217 62//217 118//217 276//217
f 174//218 277//218 157//218 61//218
f 69//219 177//219 277//219 174//219
f 177//220 46//220 102//220 277//220
f 178//221 278//221 156//221 60//221
f 70//222 181//222 278//222 178//222
f 181//223 59//223 115//223 278//223
f 182//224 279//224 125//224 29//224
f 71//225 185//225 279//225 182//225
f 185//226 58//226 114//226 279//226
f 186//227 280//227 153//227 57//227
f 72//228 189//228 280//228 186//228
f 189//229 47//229 103//229 280//229
f 190//230 281//230 152//230 56//230
f 73//231 193//231 281//231 190//231
f 193//232 55//232 111//232 281//232
f 194//233 282//233 132//233 36//233
f 74//234 197//234 282//234 194//234
f 197//235 54//235 110//235 282//235
f 198//236 283//236 149//236 53//236
f 75//237 201//237 283//237 198//237
f 201//238 44//238 100//238 283//238
f 202//239 284//239 148//239 52//239
f 76//240 205//240 284//240 202//240
f 205//241 51//241 107//241 284//241
f 206//242 285//242 133//242 37//242
f 77//243 209//243 285//243 206//243
f 209//244 50//244 106//244 285//244
f 210//245 286//245 145//245 49//245
f 78//246 213//246 286//246 210//246
f 213//247 32//247 88//247 286//247
f 214//248 287//248 144//248 48//248
f 79//249 217//249 287//249 214//249
f 217//250 35//250 91//250 287//250
f 218//251 288//251 137//251 41//251
f 80//252 221//252 288//252 218//252
f 221//253 34//253 90//253 288//253
f 222//254 289//254 141//254 45//254
f 81//255 225//255 289//255 222//255
f 225//256 28//256 84//256 289//256
