# Blender v2.78 (sub 0) OBJ File: 'Denneboom_1_001.blend'
# www.blender.org
mtllib Denneboom_1_001.mtl
o Cylinder
v 0.121003 0.002749 0.121003
v 1.261257 0.002749 0.546559
v 0.009920 3.723375 0.004109
v 0.302071 0.002749 0.302071
v 0.007593 3.723375 0.007593
v 0.547761 0.002749 1.283837
v 0.004109 3.723375 0.009920
v 0.164346 2.793219 0.039558
v 0.318282 1.863062 0.077470
v 0.472218 0.932906 0.115382
v 0.039558 2.793219 0.164346
v 0.077470 1.863062 0.318282
v 0.115382 0.932906 0.472218
v 0.001646 3.723375 0.010410
v 0.153294 0.002749 0.626154
v 0.010410 3.723375 0.001646
v 0.626154 0.002749 0.153294
v 0.357555 2.793219 0.159756
v 0.658790 1.863062 0.288690
v 0.960023 0.932906 0.417625
v 0.081212 2.793219 0.081212
v 0.154832 1.863062 0.154832
v 0.228452 0.932906 0.228452
v 0.173436 2.793219 0.350013
v 0.298211 1.863062 0.661288
v 0.422986 0.932906 0.972562
v 0.507139 0.002749 0.328657
v 0.008360 3.723375 0.006444
v 0.287597 0.002749 0.131652
v 0.382444 0.932906 0.248103
v 0.257749 1.863062 0.167550
v 0.133055 2.793219 0.086997
v 0.331731 0.002749 0.530852
v 0.006311 3.723375 0.008449
v 0.250376 0.932906 0.400252
v 0.169021 1.863062 0.269651
v 0.087666 2.793219 0.139050
v 0.132883 0.002749 0.306862
v 0.229007 2.378955 0.488646
v 0.492266 2.377257 0.217415
v 0.805317 1.410612 0.351407
v 0.358702 1.412120 0.812194
v 0.492347 0.415841 1.145597
v 1.129150 0.410673 0.490014
v -0.121003 0.002749 0.121003
v -1.261257 0.002749 0.546559
v -0.009920 3.723375 0.004109
v -0.302071 0.002749 0.302071
v -0.007593 3.723375 0.007593
v -0.547761 0.002749 1.283837
v -0.004109 3.723375 0.009920
v 0.000000 0.002749 0.427194
v 0.000000 3.723375 0.010737
v -0.164346 2.793219 0.039558
v -0.318282 1.863062 0.077470
v -0.472218 0.932906 0.115382
v -0.039558 2.793219 0.164346
v -0.077470 1.863062 0.318282
v -0.115382 0.932906 0.472218
v -0.001646 3.723375 0.010410
v -0.153294 0.002749 0.626154
v -0.010410 3.723375 0.001646
v -0.626154 0.002749 0.153294
v -0.357555 2.793219 0.159756
v -0.658790 1.863062 0.288690
v -0.960023 0.932906 0.417625
v -0.081212 2.793219 0.081212
v -0.154832 1.863062 0.154832
v -0.228452 0.932906 0.228452
v -0.173436 2.793219 0.350013
v -0.298211 1.863062 0.661288
v -0.422986 0.932906 0.972562
v 0.000000 2.793219 0.114851
v 0.000000 1.863062 0.218966
v 0.000000 0.932906 0.323080
v -0.507139 0.002749 0.328657
v -0.008360 3.723375 0.006444
v -0.287597 0.002749 0.131652
v -0.382444 0.932906 0.248103
v -0.257749 1.863062 0.167550
v -0.133055 2.793219 0.086997
v -0.331731 0.002749 0.530852
v -0.006311 3.723375 0.008449
v -0.250376 0.932906 0.400252
v -0.169021 1.863062 0.269651
v -0.087666 2.793219 0.139050
v -0.132883 0.002749 0.306862
v 0.000000 0.002749 0.157177
v -0.229007 2.378955 0.488646
v -0.492266 2.377257 0.217415
v -0.805317 1.410612 0.351407
v -0.358702 1.412120 0.812194
v -0.492347 0.415841 1.145597
v -1.129150 0.410673 0.490014
v 0.121003 0.002749 -0.121003
v 0.427194 0.002749 0.000000
v 0.010738 3.723375 0.000000
v 1.261257 0.002749 -0.546559
v 0.009920 3.723375 -0.004109
v 0.302071 0.002749 -0.302071
v 0.007593 3.723375 -0.007593
v 0.547761 0.002749 -1.283837
v 0.004109 3.723375 -0.009920
v 0.164346 2.793219 -0.039558
v 0.318282 1.863062 -0.077470
v 0.472218 0.932906 -0.115382
v 0.039558 2.793219 -0.164346
v 0.077470 1.863062 -0.318282
v 0.115382 0.932906 -0.472218
v 0.001646 3.723375 -0.010410
v 0.153294 0.002749 -0.626154
v 0.010410 3.723375 -0.001646
v 0.626154 0.002749 -0.153294
v 0.114852 2.793219 0.000000
v 0.218966 1.863062 0.000000
v 0.323080 0.932906 0.000000
v 0.357555 2.793219 -0.159756
v 0.658790 1.863062 -0.288690
v 0.960023 0.932906 -0.417625
v 0.081212 2.793219 -0.081212
v 0.154832 1.863062 -0.154832
v 0.228452 0.932906 -0.228452
v 0.173436 2.793219 -0.350013
v 0.298211 1.863062 -0.661288
v 0.422986 0.932906 -0.972562
v 0.507139 0.002749 -0.328657
v 0.008360 3.723375 -0.006444
v 0.287597 0.002749 -0.131652
v 0.382444 0.932906 -0.248103
v 0.257749 1.863062 -0.167550
v 0.133055 2.793219 -0.086997
v 0.140885 0.002749 0.000000
v 0.331731 0.002749 -0.530852
v 0.006311 3.723375 -0.008449
v 0.250376 0.932906 -0.400252
v 0.169021 1.863062 -0.269651
v 0.087666 2.793219 -0.139050
v 0.132883 0.002749 -0.306862
v 0.229007 2.378955 -0.488646
v 0.492266 2.377257 -0.217415
v 0.805317 1.410612 -0.351407
v 0.358702 1.412120 -0.812194
v 0.492347 0.415841 -1.145597
v 1.129150 0.410673 -0.490014
v -0.121003 0.002749 -0.121003
v -0.427194 0.002749 0.000000
v -0.010738 3.723375 0.000000
v -1.261257 0.002749 -0.546559
v -0.009920 3.723375 -0.004109
v -0.302071 0.002749 -0.302071
v -0.007593 3.723375 -0.007593
v -0.547761 0.002749 -1.283837
v -0.004109 3.723375 -0.009920
v 0.000000 0.002749 -0.427194
v 0.000000 3.723375 -0.010737
v -0.164346 2.793219 -0.039558
v -0.318282 1.863062 -0.077470
v -0.472218 0.932906 -0.115382
v -0.039558 2.793219 -0.164346
v -0.077470 1.863062 -0.318282
v -0.115382 0.932906 -0.472218
v -0.001646 3.723375 -0.010410
v -0.153294 0.002749 -0.626154
v -0.010410 3.723375 -0.001646
v -0.626154 0.002749 -0.153294
v -0.114852 2.793219 0.000000
v -0.218966 1.863062 0.000000
v -0.323080 0.932906 0.000000
v -0.357555 2.793219 -0.159756
v -0.658790 1.863062 -0.288690
v -0.960023 0.932906 -0.417625
v -0.081212 2.793219 -0.081212
v -0.154832 1.863062 -0.154832
v -0.228452 0.932906 -0.228452
v -0.173436 2.793219 -0.350013
v -0.298211 1.863062 -0.661288
v -0.422986 0.932906 -0.972562
v 0.000000 2.793219 -0.114851
v 0.000000 1.863062 -0.218966
v 0.000000 0.932906 -0.323080
v 0.000000 0.002749 0.000000
v -0.507139 0.002749 -0.328657
v -0.008360 3.723375 -0.006444
v -0.287597 0.002749 -0.131652
v -0.382444 0.932906 -0.248103
v -0.257749 1.863062 -0.167550
v -0.133055 2.793219 -0.086997
v -0.140885 0.002749 0.000000
v -0.331731 0.002749 -0.530852
v -0.006311 3.723375 -0.008449
v -0.250376 0.932906 -0.400252
v -0.169021 1.863062 -0.269651
v -0.087666 2.793219 -0.139050
v -0.132883 0.002749 -0.306862
v 0.000000 0.002749 -0.157177
v -0.229007 2.378955 -0.488646
v -0.492266 2.377257 -0.217415
v -0.805317 1.410612 -0.351407
v -0.358702 1.412120 -0.812194
v -0.492347 0.415841 -1.145597
v -1.129150 0.410673 -0.490014
vn -0.7841 0.0696 0.6167
vn 0.9895 0.0684 -0.1274
vn -0.7898 0.0685 0.6096
vn 0.5361 0.0569 -0.8423
vn -0.0875 0.0730 0.9935
vn 0.9301 0.0328 -0.3659
vn -0.7644 0.0733 0.6406
vn -0.7881 0.0688 0.6117
vn 0.9898 0.0688 -0.1247
vn 0.4716 0.8221 0.3190
vn -0.1247 0.0687 0.9898
vn -0.1184 0.0695 0.9905
vn -0.8477 0.0562 0.5275
vn 0.6406 0.0733 -0.7644
vn -0.8034 0.0676 0.5915
vn 0.5258 0.0525 -0.8490
vn 0.5261 0.0526 -0.8488
vn 0.5267 0.0527 -0.8484
vn 0.0000 -1.0000 0.0000
vn -0.2833 0.0436 0.9580
vn -0.2971 0.0457 0.9537
vn -0.1274 0.0684 0.9895
vn 0.9548 0.0378 -0.2950
vn 0.9935 0.0732 -0.0875
vn 0.9594 0.0419 -0.2788
vn 0.9905 0.0695 -0.1184
vn -0.2783 0.0449 0.9594
vn 0.6096 0.0685 -0.7898
vn 0.2917 0.7833 0.5490
vn 0.6117 0.0688 -0.7881
vn 0.6167 0.0696 -0.7841
vn -0.2935 0.0412 0.9551
vn -0.8324 0.0627 0.5506
vn 0.9442 0.0295 -0.3281
vn 0.6225 0.6663 0.4106
vn 0.2619 0.8307 0.4913
vn 0.3449 0.6713 0.6560
vn -0.8549 0.0528 0.5160
vn 0.5233 0.7762 0.3516
vn 0.7841 0.0696 0.6167
vn -0.9895 0.0684 -0.1274
vn 0.7898 0.0685 0.6096
vn -0.5361 0.0569 -0.8423
vn 0.0875 0.0730 0.9935
vn -0.9301 0.0328 -0.3659
vn 0.7644 0.0733 0.6406
vn 0.7881 0.0688 0.6117
vn -0.9898 0.0688 -0.1247
vn -0.4716 0.8221 0.3190
vn 0.1247 0.0687 0.9898
vn 0.1184 0.0695 0.9905
vn 0.8477 0.0562 0.5275
vn -0.6406 0.0733 -0.7644
vn 0.8034 0.0676 0.5915
vn -0.5258 0.0525 -0.8490
vn -0.5261 0.0526 -0.8488
vn -0.5267 0.0527 -0.8484
vn 0.2833 0.0436 0.9580
vn 0.2971 0.0457 0.9537
vn 0.1274 0.0684 0.9895
vn -0.9548 0.0378 -0.2950
vn -0.9935 0.0732 -0.0875
vn -0.9594 0.0419 -0.2788
vn -0.9905 0.0695 -0.1184
vn 0.2783 0.0449 0.9594
vn -0.6096 0.0685 -0.7898
vn -0.2917 0.7833 0.5490
vn -0.6117 0.0688 -0.7881
vn -0.6167 0.0696 -0.7841
vn 0.2935 0.0412 0.9551
vn 0.8324 0.0627 0.5506
vn -0.9442 0.0295 -0.3281
vn -0.6225 0.6663 0.4106
vn -0.2619 0.8307 0.4913
vn -0.3449 0.6713 0.6560
vn 0.8549 0.0528 0.5160
vn -0.5233 0.7762 0.3516
vn -0.7841 0.0696 -0.6167
vn 0.9895 0.0684 0.1274
vn -0.7898 0.0685 -0.6096
vn 0.5361 0.0569 0.8423
vn -0.0875 0.0730 -0.9935
vn 0.9301 0.0328 0.3659
vn -0.7644 0.0733 -0.6406
vn -0.7881 0.0688 -0.6117
vn 0.9898 0.0688 0.1247
vn 0.4716 0.8221 -0.3190
vn -0.1247 0.0687 -0.9898
vn -0.1184 0.0695 -0.9905
vn -0.8477 0.0562 -0.5275
vn 0.6406 0.0733 0.7644
vn -0.8034 0.0676 -0.5915
vn 0.5258 0.0525 0.8490
vn 0.5261 0.0526 0.8488
vn 0.5267 0.0527 0.8484
vn -0.2833 0.0436 -0.9580
vn -0.2971 0.0457 -0.9537
vn -0.1274 0.0684 -0.9895
vn 0.9548 0.0378 0.2950
vn 0.9935 0.0732 0.0875
vn 0.9594 0.0419 0.2788
vn 0.9905 0.0695 0.1184
vn -0.2783 0.0449 -0.9594
vn 0.6096 0.0685 0.7898
vn 0.2917 0.7833 -0.5490
vn 0.6117 0.0688 0.7881
vn 0.6167 0.0696 0.7841
vn -0.2935 0.0412 -0.9551
vn -0.8324 0.0627 -0.5506
vn 0.9442 0.0295 0.3281
vn 0.6225 0.6663 -0.4106
vn 0.2619 0.8307 -0.4913
vn 0.3449 0.6713 -0.6560
vn -0.8549 0.0528 -0.5160
vn 0.5233 0.7762 -0.3516
vn 0.7841 0.0696 -0.6167
vn -0.9895 0.0684 0.1274
vn 0.7898 0.0685 -0.6096
vn -0.5361 0.0569 0.8423
vn 0.0875 0.0730 -0.9935
vn -0.9301 0.0328 0.3659
vn 0.7644 0.0733 -0.6406
vn 0.7881 0.0688 -0.6117
vn -0.9898 0.0688 0.1247
vn -0.4716 0.8221 -0.3190
vn 0.1247 0.0687 -0.9898
vn 0.1184 0.0695 -0.9905
vn 0.8477 0.0562 -0.5275
vn -0.6406 0.0733 0.7644
vn 0.8034 0.0676 -0.5915
vn -0.5258 0.0525 0.8490
vn -0.5261 0.0526 0.8488
vn -0.5267 0.0527 0.8484
vn 0.2833 0.0436 -0.9580
vn 0.2971 0.0457 -0.9537
vn 0.1274 0.0684 -0.9895
vn -0.9548 0.0378 0.2950
vn -0.9935 0.0732 0.0875
vn -0.9594 0.0419 0.2788
vn -0.9905 0.0695 0.1184
vn 0.2783 0.0449 -0.9594
vn -0.6096 0.0685 0.7898
vn -0.2917 0.7833 -0.5490
vn -0.6117 0.0688 0.7881
vn -0.6167 0.0696 0.7841
vn 0.2935 0.0412 -0.9551
vn 0.8324 0.0627 -0.5506
vn -0.9442 0.0295 0.3281
vn -0.6225 0.6663 -0.4106
vn -0.2619 0.8307 -0.4913
vn -0.3449 0.6713 -0.6560
vn 0.8549 0.0528 -0.5160
vn -0.5233 0.7762 -0.3516
usemtl None
s off
f 74//1 12//1 11//1 73//1
f 33//2 4//2 23//2 35//2
f 52//3 15//3 13//3 75//3
f 8//4 16//4 3//4 18//4
f 32//5 28//5 5//5 21//5
f 37//6 34//6 7//6 24//6
f 11//7 14//7 53//7 73//7
f 74//8 75//8 13//8 12//8
f 35//9 23//9 22//9 36//9
f 10//10 30//10 44//10
f 23//11 30//11 31//11 22//11
f 22//12 31//12 32//12 21//12
f 12//13 13//13 26//13 42//13
f 114//14 97//14 16//14 8//14
f 24//15 7//15 14//15 11//15
f 2//16 17//16 10//16 44//16
f 20//17 10//17 9//17 41//17
f 19//18 9//18 8//18 40//18
f 27//19 29//19 17//19 2//19
f 29//19 132//19 96//19 17//19
f 38//19 1//19 4//19 33//19
f 88//19 181//19 1//19 38//19
f 1//19 181//19 132//19 29//19
f 4//19 1//19 29//19 27//19
f 30//20 20//20 41//20 31//20
f 18//21 3//21 28//21 32//21
f 4//22 27//22 30//22 23//22
f 52//19 88//19 38//19 15//19
f 15//19 38//19 33//19 6//19
f 26//23 35//23 36//23 42//23
f 21//24 5//24 34//24 37//24
f 6//25 33//25 35//25 43//25
f 36//26 22//26 21//26 37//26
f 27//27 2//27 44//27 30//27
f 116//28 10//28 17//28 96//28
f 12//29 42//29 36//29
f 115//30 9//30 10//30 116//30
f 114//31 8//31 9//31 115//31
f 25//19 12//19 36//19
f 31//32 19//32 40//32 32//32
f 39//33 11//33 12//33 25//33
f 37//34 39//34 25//34 36//34
f 32//35 40//35 8//35
f 20//19 30//19 10//19
f 18//19 32//19 8//19
f 35//36 13//36 43//36
f 26//19 13//19 35//19
f 11//37 39//37 37//37
f 43//38 13//38 15//38 6//38
f 24//19 11//19 37//19
f 9//39 31//39 41//39
f 19//19 31//19 9//19
f 74//40 73//40 57//40 58//40
f 82//41 84//41 69//41 48//41
f 52//42 75//42 59//42 61//42
f 54//43 64//43 47//43 62//43
f 81//44 67//44 49//44 77//44
f 86//45 70//45 51//45 83//45
f 57//46 73//46 53//46 60//46
f 74//47 58//47 59//47 75//47
f 84//48 85//48 68//48 69//48
f 56//49 94//49 79//49
f 69//50 68//50 80//50 79//50
f 68//51 67//51 81//51 80//51
f 58//52 92//52 72//52 59//52
f 166//53 54//53 62//53 147//53
f 70//54 57//54 60//54 51//54
f 46//55 94//55 56//55 63//55
f 66//56 91//56 55//56 56//56
f 65//57 90//57 54//57 55//57
f 76//19 46//19 63//19 78//19
f 78//19 63//19 146//19 188//19
f 87//19 82//19 48//19 45//19
f 88//19 87//19 45//19 181//19
f 45//19 78//19 188//19 181//19
f 48//19 76//19 78//19 45//19
f 79//58 80//58 91//58 66//58
f 64//59 81//59 77//59 47//59
f 48//60 69//60 79//60 76//60
f 52//19 61//19 87//19 88//19
f 61//19 50//19 82//19 87//19
f 72//61 92//61 85//61 84//61
f 67//62 86//62 83//62 49//62
f 50//63 93//63 84//63 82//63
f 85//64 86//64 67//64 68//64
f 76//65 79//65 94//65 46//65
f 168//66 146//66 63//66 56//66
f 58//67 85//67 92//67
f 167//68 168//68 56//68 55//68
f 166//69 167//69 55//69 54//69
f 71//19 85//19 58//19
f 80//70 81//70 90//70 65//70
f 89//71 71//71 58//71 57//71
f 86//72 85//72 71//72 89//72
f 81//73 54//73 90//73
f 66//19 56//19 79//19
f 64//19 54//19 81//19
f 84//74 93//74 59//74
f 72//19 84//19 59//19
f 57//75 86//75 89//75
f 93//76 50//76 61//76 59//76
f 70//19 86//19 57//19
f 55//77 91//77 80//77
f 65//19 55//19 80//19
f 179//78 178//78 107//78 108//78
f 133//79 135//79 122//79 100//79
f 154//80 180//80 109//80 111//80
f 104//81 117//81 99//81 112//81
f 131//82 120//82 101//82 127//82
f 137//83 123//83 103//83 134//83
f 107//84 178//84 155//84 110//84
f 179//85 108//85 109//85 180//85
f 135//86 136//86 121//86 122//86
f 106//87 144//87 129//87
f 122//88 121//88 130//88 129//88
f 121//89 120//89 131//89 130//89
f 108//90 142//90 125//90 109//90
f 114//91 104//91 112//91 97//91
f 123//92 107//92 110//92 103//92
f 98//93 144//93 106//93 113//93
f 119//94 141//94 105//94 106//94
f 118//95 140//95 104//95 105//95
f 126//19 98//19 113//19 128//19
f 128//19 113//19 96//19 132//19
f 138//19 133//19 100//19 95//19
f 195//19 138//19 95//19 181//19
f 95//19 128//19 132//19 181//19
f 100//19 126//19 128//19 95//19
f 129//96 130//96 141//96 119//96
f 117//97 131//97 127//97 99//97
f 100//98 122//98 129//98 126//98
f 154//19 111//19 138//19 195//19
f 111//19 102//19 133//19 138//19
f 125//99 142//99 136//99 135//99
f 120//100 137//100 134//100 101//100
f 102//101 143//101 135//101 133//101
f 136//102 137//102 120//102 121//102
f 126//103 129//103 144//103 98//103
f 116//104 96//104 113//104 106//104
f 108//105 136//105 142//105
f 115//106 116//106 106//106 105//106
f 114//107 115//107 105//107 104//107
f 124//19 136//19 108//19
f 130//108 131//108 140//108 118//108
f 139//109 124//109 108//109 107//109
f 137//110 136//110 124//110 139//110
f 131//111 104//111 140//111
f 119//19 106//19 129//19
f 117//19 104//19 131//19
f 135//112 143//112 109//112
f 125//19 135//19 109//19
f 107//113 137//113 139//113
f 143//114 102//114 111//114 109//114
f 123//19 137//19 107//19
f 105//115 141//115 130//115
f 118//19 105//19 130//19
f 179//116 160//116 159//116 178//116
f 189//117 150//117 174//117 191//117
f 154//118 163//118 161//118 180//118
f 156//119 164//119 149//119 169//119
f 187//120 183//120 151//120 172//120
f 193//121 190//121 153//121 175//121
f 159//122 162//122 155//122 178//122
f 179//123 180//123 161//123 160//123
f 191//124 174//124 173//124 192//124
f 158//125 185//125 201//125
f 174//126 185//126 186//126 173//126
f 173//127 186//127 187//127 172//127
f 160//128 161//128 177//128 199//128
f 166//129 147//129 164//129 156//129
f 175//130 153//130 162//130 159//130
f 148//131 165//131 158//131 201//131
f 171//132 158//132 157//132 198//132
f 170//133 157//133 156//133 197//133
f 182//19 184//19 165//19 148//19
f 184//19 188//19 146//19 165//19
f 194//19 145//19 150//19 189//19
f 195//19 181//19 145//19 194//19
f 145//19 181//19 188//19 184//19
f 150//19 145//19 184//19 182//19
f 185//134 171//134 198//134 186//134
f 169//135 149//135 183//135 187//135
f 150//136 182//136 185//136 174//136
f 154//19 195//19 194//19 163//19
f 163//19 194//19 189//19 152//19
f 177//137 191//137 192//137 199//137
f 172//138 151//138 190//138 193//138
f 152//139 189//139 191//139 200//139
f 192//140 173//140 172//140 193//140
f 182//141 148//141 201//141 185//141
f 168//142 158//142 165//142 146//142
f 160//143 199//143 192//143
f 167//144 157//144 158//144 168//144
f 166//145 156//145 157//145 167//145
f 176//19 160//19 192//19
f 186//146 170//146 197//146 187//146
f 196//147 159//147 160//147 176//147
f 193//148 196//148 176//148 192//148
f 187//149 197//149 156//149
f 171//19 185//19 158//19
f 169//19 187//19 156//19
f 191//150 161//150 200//150
f 177//19 161//19 191//19
f 159//151 196//151 193//151
f 200//152 161//152 163//152 152//152
f 175//19 159//19 193//19
f 157//153 186//153 198//153
f 170//19 186//19 157//19
